<svg version="1.1" xmlns="http://www.w3.org/2000/svg" xmlns:xlink="http://www.w3.org/1999/xlink" width="492" height="350"><defs><linearGradient id="rMhRkoqZOlhK" x1="0px" x2="32px" y1="0px" y2="0px" gradientUnits="userSpaceOnUse"><stop offset="0" stop-color="#39c639"/><stop offset="1" stop-color="#609e60"/></linearGradient><linearGradient id="WaxMXVrWzmbv" x1="0px" x2="32px" y1="0px" y2="0px" gradientUnits="userSpaceOnUse"><stop offset="0" stop-color="#609e60"/><stop offset="1" stop-color="#f10e0e"/></linearGradient><linearGradient id="dPcoWdIiulzB" x1="0px" x2="32px" y1="0px" y2="0px" gradientUnits="userSpaceOnUse"><stop offset="0" stop-color="#f10e0e"/><stop offset="1" stop-color="#f10e0e"/></linearGradient></defs><g><rect fill="#000000" stroke="none" x="0" y="0" width="492" height="350"/><g transform="scale(1,1) translate(-26,-4)"><path fill="none" stroke="#807f7f" paint-order="fill stroke markers" d=" M 96 176 L 96 161" stroke-linecap="round" stroke-miterlimit="10" stroke-width="3" stroke-dasharray=""/><path fill="none" stroke="#39c639" paint-order="fill stroke markers" d=" M 96 127 L 96 112" stroke-linecap="round" stroke-miterlimit="10" stroke-width="3" stroke-dasharray=""/><path fill="none" stroke="#808080" paint-order="fill stroke markers" d=" M 112.66 144 A 16.66 16.66 0 1 1 112.6599916700007 143.98334000277666" stroke-linecap="round" stroke-miterlimit="10" stroke-width="3" stroke-dasharray=""/><path fill="none" stroke="#808080" paint-order="fill stroke markers" d=" M 86 144 L 87 142 L 88 140 L 89 138 L 90 137 L 91 137 L 92 137 L 93 138 L 94 140 L 95 142 L 96 144 L 97 146 L 98 148 L 99 150 L 100 151 L 101 151 L 102 151 L 103 150 L 104 148 L 105 146 L 106 144" stroke-linecap="round" stroke-miterlimit="10" stroke-width="3" stroke-dasharray=""/><text fill="#ffffff" stroke="none" font-family="sans-serif" font-size="12px" font-style="normal" font-weight="normal" text-decoration="normal" x="49" y="150" text-anchor="start" dominant-baseline="alphabetic">80Hz</text><text fill="#ffffff" stroke="none" font-family="sans-serif" font-size="12px" font-style="normal" font-weight="normal" text-decoration="normal" x="103" y="127" text-anchor="start" dominant-baseline="alphabetic">+</text><path fill="none" stroke="#807f7f" paint-order="fill stroke markers" d=" M 96 256 L 96 304" stroke-linecap="round" stroke-miterlimit="10" stroke-width="3" stroke-dasharray=""/><path fill="none" stroke="#807f7f" paint-order="fill stroke markers" d=" M 106 304 L 86 304" stroke-linecap="round" stroke-miterlimit="10" stroke-width="3" stroke-dasharray=""/><path fill="none" stroke="#807f7f" paint-order="fill stroke markers" d=" M 102 309 L 90 309" stroke-linecap="round" stroke-miterlimit="10" stroke-width="3" stroke-dasharray=""/><path fill="none" stroke="#807f7f" paint-order="fill stroke markers" d=" M 98 314 L 94 314" stroke-linecap="round" stroke-miterlimit="10" stroke-width="3" stroke-dasharray=""/><path fill="none" stroke="#39c639" paint-order="fill stroke markers" d=" M 96 112 L 128 112" stroke-linecap="round" stroke-miterlimit="10" stroke-width="3" stroke-dasharray=""/><path fill="none" stroke="#609e60" paint-order="fill stroke markers" d=" M 160 112 L 192 112" stroke-linecap="round" stroke-miterlimit="10" stroke-width="3" stroke-dasharray=""/><g transform="matrix(1,0,0,1,128,112)"><path fill="none" stroke="url(#rMhRkoqZOlhK)" paint-order="fill stroke markers" d=" M 0 0 L 2 6 L 6 -6 L 10 6 L 14 -6 L 18 6 L 22 -6 L 26 6 L 30 -6 L 32 0" stroke-linecap="round" stroke-miterlimit="10" stroke-width="3" stroke-dasharray=""/></g><text fill="#ffffff" stroke="none" font-family="sans-serif" font-size="12px" font-style="normal" font-weight="normal" text-decoration="normal" x="134" y="102" text-anchor="start" dominant-baseline="alphabetic">47k</text><path fill="none" stroke="#609e60" paint-order="fill stroke markers" d=" M 192 112 L 272 112" stroke-linecap="round" stroke-miterlimit="10" stroke-width="3" stroke-dasharray=""/><path fill="none" stroke="#f10e0e" paint-order="fill stroke markers" d=" M 304 112 L 384 112" stroke-linecap="round" stroke-miterlimit="10" stroke-width="3" stroke-dasharray=""/><g transform="matrix(1,0,0,1,272,112)"><path fill="none" stroke="url(#WaxMXVrWzmbv)" paint-order="fill stroke markers" d=" M 0 0 L 2 6 L 6 -6 L 10 6 L 14 -6 L 18 6 L 22 -6 L 26 6 L 30 -6 L 32 0" stroke-linecap="round" stroke-miterlimit="10" stroke-width="3" stroke-dasharray=""/></g><text fill="#ffffff" stroke="none" font-family="sans-serif" font-size="12px" font-style="normal" font-weight="normal" text-decoration="normal" x="275" y="102" text-anchor="start" dominant-baseline="alphabetic">150k</text><path fill="none" stroke="#609e60" paint-order="fill stroke markers" d=" M 192 112 L 192 144" stroke-linecap="round" stroke-miterlimit="10" stroke-width="3" stroke-dasharray=""/><text fill="#ffffff" stroke="none" font-family="sans-serif" font-size="12px" font-style="normal" font-weight="normal" text-decoration="normal" x="198" y="134" text-anchor="start" dominant-baseline="alphabetic"></text><path fill="none" stroke="#609e60" paint-order="fill stroke markers" d=" M 192 144 L 192 176" stroke-linecap="round" stroke-miterlimit="10" stroke-width="3" stroke-dasharray=""/><text fill="#ffffff" stroke="none" font-family="sans-serif" font-size="12px" font-style="normal" font-weight="normal" text-decoration="normal" x="198" y="166" text-anchor="start" dominant-baseline="alphabetic"></text><path fill="none" stroke="#609e60" paint-order="fill stroke markers" d=" M 192 208 L 192 256" stroke-linecap="round" stroke-miterlimit="10" stroke-width="3" stroke-dasharray=""/><text fill="#ffffff" stroke="none" font-family="sans-serif" font-size="12px" font-style="normal" font-weight="normal" text-decoration="normal" x="198" y="238" text-anchor="start" dominant-baseline="alphabetic"></text><path fill="none" stroke="#609e60" paint-order="fill stroke markers" d=" M 192 176 L 238 176" stroke-linecap="round" stroke-miterlimit="10" stroke-width="3" stroke-dasharray=""/><path fill="none" stroke="#609e60" paint-order="fill stroke markers" d=" M 192 208 L 238 208" stroke-linecap="round" stroke-miterlimit="10" stroke-width="3" stroke-dasharray=""/><path fill="none" stroke="#f10e0e" paint-order="fill stroke markers" d=" M 290 192 L 336 192" stroke-linecap="round" stroke-miterlimit="10" stroke-width="3" stroke-dasharray=""/><path fill="none" stroke="#c0c0c0" paint-order="fill stroke markers" d=" M 238 160 L 238 224 L 290 192 Z" stroke-linecap="round" stroke-miterlimit="10" stroke-width="3" stroke-dasharray=""/><g><text fill="#c0c0c0" stroke="none" font-family="sans-serif" font-size="14px" font-style="normal" font-weight="normal" text-decoration="normal" x="248" y="174" text-anchor="middle" dominant-baseline="central">-</text></g><g><text fill="#c0c0c0" stroke="none" font-family="sans-serif" font-size="14px" font-style="normal" font-weight="normal" text-decoration="normal" x="248" y="208" text-anchor="middle" dominant-baseline="central">+</text></g><g><g><text fill="#ffffff" stroke="none" font-family="sans-serif" font-size="14px" font-style="normal" font-weight="normal" text-decoration="normal" x="448" y="192" text-anchor="middle" dominant-baseline="central">out</text></g><path fill="none" stroke="#f10e0e" paint-order="fill stroke markers" d=" M 384 192 L 430 192" stroke-linecap="round" stroke-miterlimit="10" stroke-width="3" stroke-dasharray=""/></g><path fill="none" stroke="#807f7f" paint-order="fill stroke markers" d=" M 96 176 L 96 208" stroke-linecap="round" stroke-miterlimit="10" stroke-width="3" stroke-dasharray=""/><path fill="none" stroke="#807f7f" paint-order="fill stroke markers" d=" M 106 208 L 86 208" stroke-linecap="round" stroke-miterlimit="10" stroke-width="3" stroke-dasharray=""/><path fill="none" stroke="#807f7f" paint-order="fill stroke markers" d=" M 102 213 L 90 213" stroke-linecap="round" stroke-miterlimit="10" stroke-width="3" stroke-dasharray=""/><path fill="none" stroke="#807f7f" paint-order="fill stroke markers" d=" M 98 218 L 94 218" stroke-linecap="round" stroke-miterlimit="10" stroke-width="3" stroke-dasharray=""/><path fill="none" stroke="#807f7f" paint-order="fill stroke markers" d=" M 96 256 L 140 256" stroke-linecap="round" stroke-miterlimit="10" stroke-width="3" stroke-dasharray=""/><path fill="none" stroke="#609e60" paint-order="fill stroke markers" d=" M 148 256 L 192 256" stroke-linecap="round" stroke-miterlimit="10" stroke-width="3" stroke-dasharray=""/><path fill="none" stroke="#807f7f" paint-order="fill stroke markers" d=" M 140 246 L 140 266" stroke-linecap="round" stroke-miterlimit="10" stroke-width="3" stroke-dasharray=""/><path fill="none" stroke="#609e60" paint-order="fill stroke markers" d=" M 148 240 L 148 272" stroke-linecap="round" stroke-miterlimit="10" stroke-width="3" stroke-dasharray=""/><g><text fill="#c0c0c0" stroke="none" font-family="sans-serif" font-size="24px" font-style="normal" font-weight="normal" text-decoration="normal" x="104" y="54" text-anchor="start" dominant-baseline="alphabetic">3.3v to -5 5v 1.25vref</text></g><path fill="none" stroke="#f10e0e" paint-order="fill stroke markers" d=" M 336 192 L 344 192" stroke-linecap="round" stroke-miterlimit="10" stroke-width="3" stroke-dasharray=""/><path fill="none" stroke="#f10e0e" paint-order="fill stroke markers" d=" M 376 192 L 384 192" stroke-linecap="round" stroke-miterlimit="10" stroke-width="3" stroke-dasharray=""/><g transform="matrix(1,0,0,1,344,192)"><path fill="none" stroke="url(#dPcoWdIiulzB)" paint-order="fill stroke markers" d=" M 0 0 L 2 6 L 6 -6 L 10 6 L 14 -6 L 18 6 L 22 -6 L 26 6 L 30 -6 L 32 0" stroke-linecap="round" stroke-miterlimit="10" stroke-width="3" stroke-dasharray=""/></g><text fill="#ffffff" stroke="none" font-family="sans-serif" font-size="12px" font-style="normal" font-weight="normal" text-decoration="normal" x="350" y="182" text-anchor="start" dominant-baseline="alphabetic">330</text><path fill="none" stroke="#f10e0e" paint-order="fill stroke markers" d=" M 384 112 L 384 192" stroke-linecap="round" stroke-miterlimit="10" stroke-width="3" stroke-dasharray=""/><text fill="#ffffff" stroke="none" font-family="sans-serif" font-size="12px" font-style="normal" font-weight="normal" text-decoration="normal" x="390" y="158" text-anchor="start" dominant-baseline="alphabetic"></text><path fill="none" stroke="#609e60" paint-order="fill stroke markers" d=" M 192 144 L 260 144" stroke-linecap="round" stroke-miterlimit="10" stroke-width="3" stroke-dasharray=""/><path fill="none" stroke="#609e60" paint-order="fill stroke markers" d=" M 260 132 L 260 156" stroke-linecap="round" stroke-miterlimit="10" stroke-width="3" stroke-dasharray=""/><path fill="none" stroke="#f10e0e" paint-order="fill stroke markers" d=" M 336 144 L 268 144" stroke-linecap="round" stroke-miterlimit="10" stroke-width="3" stroke-dasharray=""/><path fill="none" stroke="#f10e0e" paint-order="fill stroke markers" d=" M 268 132 L 268 156" stroke-linecap="round" stroke-miterlimit="10" stroke-width="3" stroke-dasharray=""/><text fill="#ffffff" stroke="none" font-family="sans-serif" font-size="12px" font-style="normal" font-weight="normal" text-decoration="normal" x="245" y="130" text-anchor="start" dominant-baseline="alphabetic">3.47nF</text><path fill="none" stroke="#f10e0e" paint-order="fill stroke markers" d=" M 336 144 L 336 192" stroke-linecap="round" stroke-miterlimit="10" stroke-width="3" stroke-dasharray=""/><text fill="#ffffff" stroke="none" font-family="sans-serif" font-size="12px" font-style="normal" font-weight="normal" text-decoration="normal" x="342" y="174" text-anchor="start" dominant-baseline="alphabetic"></text><path fill="#ffffff" stroke="none" paint-order="stroke fill markers" d=" M 195 112 A 3 3 0 1 1 194.99999999995774 111.99998407846124 Z"/><path fill="#ffffff" stroke="none" paint-order="stroke fill markers" d=" M 195 144 A 3 3 0 1 1 194.99999999995774 143.99998407846124 Z"/><path fill="#ffffff" stroke="none" paint-order="stroke fill markers" d=" M 339 192 A 3 3 0 1 1 338.99999999995777 191.99998407846124 Z"/><path fill="#ffffff" stroke="none" paint-order="stroke fill markers" d=" M 387 192 A 3 3 0 1 1 386.99999999995777 191.99998407846124 Z"/></g></g></svg>